<svg width="20" height="20" viewBox="0 0 20 20" fill="none" xmlns="http://www.w3.org/2000/svg">
<g clip-path="url(#clip0_111_43)">
<path fill-rule="evenodd" clip-rule="evenodd" d="M10 1.75C5.44365 1.75 1.75 5.44365 1.75 10C1.75 14.5563 5.44365 18.25 10 18.25C14.5563 18.25 18.25 14.5563 18.25 10C18.25 5.44365 14.5563 1.75 10 1.75ZM0.25 10C0.25 4.61522 4.61522 0.25 10 0.25C15.3848 0.25 19.75 4.61522 19.75 10C19.75 15.3848 15.3848 19.75 10 19.75C4.61522 19.75 0.25 15.3848 0.25 10Z" fill="#F76161" style="fill:#F76161;fill:color(display-p3 0.9686 0.3804 0.3804);fill-opacity:1;"/>
<path fill-rule="evenodd" clip-rule="evenodd" d="M10 11C9.58062 11 9.23564 10.6697 9.21742 10.2507L9.04344 6.24906C9.01976 5.70446 9.45488 5.25 10 5.25V5.25C10.5451 5.25 10.9802 5.70446 10.9566 6.24906L10.7826 10.2507C10.7644 10.6697 10.4194 11 10 11V11Z" fill="#F76161" style="fill:#F76161;fill:color(display-p3 0.9686 0.3804 0.3804);fill-opacity:1;"/>
<rect x="8.85001" y="12.45" width="2.3" height="2.3" rx="1.15" fill="#F76161" style="fill:#F76161;fill:color(display-p3 0.9686 0.3804 0.3804);fill-opacity:1;"/>
</g>
<defs>
<clipPath id="clip0_111_43">
<rect width="20" height="20" fill="white" style="fill:white;fill-opacity:1;"/>
</clipPath>
</defs>
</svg>
