<svg width="22" height="22" viewBox="0 0 22 22" fill="none" xmlns="http://www.w3.org/2000/svg">
<path d="M11.8755 6.505C11.8755 6.02175 11.4838 5.63 11.0005 5.63C10.5173 5.63 10.1255 6.02175 10.1255 6.505V13.6666L9.54212 13.0015L8.08371 11.5431C7.74201 11.2014 7.18799 11.2014 6.84628 11.5431C6.50457 11.8848 6.50457 12.4389 6.84628 12.7806L10.0283 15.9626C10.5652 16.4995 11.4358 16.4995 11.9728 15.9626L15.1548 12.7806C15.4965 12.4389 15.4965 11.8848 15.1548 11.5431C14.8131 11.2014 14.2591 11.2014 13.9173 11.5431L12.4589 13.0015L11.8755 13.6731V6.505Z" fill="#F5F5F5" style="fill:#F5F5F5;fill:color(display-p3 0.9623 0.9623 0.9623);fill-opacity:1;"/>
</svg>
