<svg width="32" height="32" viewBox="0 0 32 32" fill="none" xmlns="http://www.w3.org/2000/svg">
<g clip-path="url(#clip0_203_20)">
<circle cx="16" cy="16" r="16" fill="white" style="fill:white;fill-opacity:1;"/>
<path fill-rule="evenodd" clip-rule="evenodd" d="M10.6 18.9246C10.9323 18.4986 11.2948 18.0483 11.6876 17.5812C13.2175 15.7619 15.2183 13.675 17.7367 11.7357C17.697 11.6573 17.657 11.5803 17.6167 11.5048C16.7532 9.88643 16.1067 9.58772 15.8161 9.58772C15.2762 9.58772 14.5501 9.9566 13.6949 11.0816C12.8632 12.1758 12.1091 13.7374 11.5167 15.4653C11.1169 16.6312 10.8074 17.8241 10.6 18.9246ZM20.5201 9.80433C20.5023 9.7703 20.4844 9.73643 20.4664 9.70273C19.5308 7.94922 18.0363 6 15.8161 6C13.8453 6 12.2798 7.31589 11.156 8.7943C10.0087 10.3036 9.09659 12.264 8.42914 14.2107C7.75771 16.169 7.29706 18.2214 7.10339 19.9824C7.00674 20.8611 6.97161 21.7113 7.02484 22.4652C7.07426 23.1652 7.21324 24.0121 7.63134 24.7011C7.94663 25.2208 8.49648 25.5572 9.11495 25.5317C9.57297 25.5129 9.89743 25.2994 10.0123 25.2194C10.2697 25.0401 10.4687 24.8047 10.5645 24.6894C10.7902 24.4178 11.0753 24.0181 11.3695 23.6057L11.4112 23.5472C12.049 22.6532 12.9363 21.4094 14.1183 20.0038C15.4103 18.4675 17.0451 16.7497 19.0541 15.1268C19.2675 15.8142 19.4675 16.5325 19.6537 17.2643C20.2065 19.4376 20.6107 21.6248 20.8773 23.2776C21.0102 24.1016 21.108 24.7872 21.1723 25.2649C21.2045 25.5036 21.2282 25.69 21.2438 25.8154C21.2516 25.8782 21.2573 25.9256 21.261 25.9567C21.2629 25.9722 21.2642 25.9837 21.2651 25.9909L21.2659 25.9985L21.2661 25.9999L21.2661 26C21.2661 25.9999 21.2661 25.9997 22.9012 25.7773C24.5362 25.555 24.5362 25.5546 24.5362 25.5542L24.5356 25.5496L24.5342 25.5377C24.5331 25.5276 24.5314 25.5133 24.5292 25.4948C24.5248 25.4578 24.5183 25.4043 24.5097 25.3353C24.4926 25.1973 24.4671 24.9974 24.433 24.7443C24.3649 24.2385 24.2623 23.5192 24.1232 22.6572C23.846 20.9381 23.4205 18.6294 22.8297 16.3069C22.5579 15.2382 22.2453 14.143 21.8876 13.0876C22.8577 12.4706 23.8944 11.8907 25 11.3674L23.686 8.07717C22.5662 8.60719 21.5115 9.18855 20.5201 9.80433ZM8.0907 22.3174C8.08383 22.3251 8.08053 22.3284 8.0806 22.3282C8.08067 22.3279 8.08411 22.3241 8.0907 22.3174Z" fill="black" style="fill:black;fill-opacity:1;"/>
</g>
<defs>
<clipPath id="clip0_203_20">
<rect width="32" height="32" fill="white" style="fill:white;fill-opacity:1;"/>
</clipPath>
</defs>
</svg>
