<svg width="25" height="25" viewBox="0 0 25 25" fill="none" xmlns="http://www.w3.org/2000/svg">
<path fill-rule="evenodd" clip-rule="evenodd" d="M5.59996 16.1557C6.02461 15.6233 6.48777 15.0603 6.98967 14.4765C8.94458 12.2024 11.5012 9.59377 14.7191 7.16962C14.6684 7.07158 14.6173 6.97536 14.5658 6.88103C13.4624 4.85804 12.6363 4.48465 12.2651 4.48465C11.5752 4.48465 10.6474 4.94575 9.55465 6.35202C8.49191 7.71971 7.52827 9.67176 6.77128 11.8316C6.2605 13.289 5.86506 14.7801 5.59996 16.1557ZM18.2757 4.75542C18.253 4.71287 18.2301 4.67054 18.2071 4.62842C17.0116 2.43653 15.1019 1.28307e-06 12.2651 0C9.74683 -1.06922e-06 7.74637 1.64487 6.3104 3.49288C4.84446 5.37947 3.67898 7.83001 2.82612 10.2634C1.96818 12.7113 1.37958 15.2768 1.1321 17.4779C1.00861 18.5764 0.963722 19.6391 1.03174 20.5816C1.09489 21.4565 1.27247 22.5151 1.80671 23.3764C2.20959 24.0259 2.91217 24.4464 3.70244 24.4146C4.28769 24.3911 4.70228 24.1243 4.84908 24.0242C5.17797 23.8001 5.43226 23.5058 5.55461 23.3618C5.84301 23.0222 6.20734 22.5226 6.58321 22.0071L6.63655 21.934C7.45152 20.8165 8.58527 19.2618 10.0956 17.5048C11.7465 15.5844 13.8354 13.4371 16.4025 11.4085C16.6751 12.2678 16.9307 13.1656 17.1686 14.0804C17.8749 16.7971 18.3915 19.531 18.7321 21.597C18.9019 22.627 19.0269 23.484 19.1091 24.0811C19.1502 24.3794 19.1805 24.6125 19.2004 24.7693C19.2104 24.8477 19.2177 24.907 19.2224 24.9459C19.2248 24.9653 19.2265 24.9796 19.2276 24.9886L19.2287 24.9981L19.2289 24.9999L19.2289 25C19.2289 24.9998 19.2289 24.9996 21.3182 24.7216C23.4074 24.4437 23.4074 24.4433 23.4073 24.4428L23.4066 24.437L23.4049 24.4221C23.4034 24.4095 23.4012 24.3916 23.3984 24.3685C23.3928 24.3223 23.3845 24.2553 23.3735 24.1691C23.3517 23.9966 23.3191 23.7467 23.2756 23.4304C23.1885 22.7981 23.0573 21.8989 22.8797 20.8215C22.5254 18.6726 21.9817 15.7868 21.2269 12.8836C20.8795 11.5478 20.4801 10.1788 20.023 8.85949C21.2626 8.0883 22.5873 7.36332 24 6.7092L22.321 2.59646C20.8901 3.25898 19.5425 3.98569 18.2757 4.75542ZM2.39367 20.3968C2.38489 20.4064 2.38068 20.4105 2.38077 20.4102C2.38086 20.4099 2.38525 20.4051 2.39367 20.3968Z" fill="#898989" style="fill:#898989;fill:color(display-p3 0.5354 0.5354 0.5354);fill-opacity:1;"/>
</svg>
