<svg width="36" height="36" viewBox="0 0 36 36" fill="none" xmlns="http://www.w3.org/2000/svg">
<g clip-path="url(#clip0_54_7)">
<path d="M0 15.84C0 10.2955 0 7.52322 1.07904 5.40549C2.02818 3.54269 3.54269 2.02818 5.40549 1.07904C7.52322 0 10.2955 0 15.84 0H20.16C25.7045 0 28.4768 0 30.5945 1.07904C32.4573 2.02818 33.9718 3.54269 34.921 5.40549C36 7.52322 36 10.2955 36 15.84V20.16C36 25.7045 36 28.4768 34.921 30.5945C33.9718 32.4573 32.4573 33.9718 30.5945 34.921C28.4768 36 25.7045 36 20.16 36H15.84C10.2955 36 7.52322 36 5.40549 34.921C3.54269 33.9718 2.02818 32.4573 1.07904 30.5945C0 28.4768 0 25.7045 0 20.16V15.84Z" fill="black" style="fill:black;fill-opacity:1;"/>
<path fill-rule="evenodd" clip-rule="evenodd" d="M11.2 21.217C11.5877 20.7485 12.0106 20.2531 12.4688 19.7393C14.2537 17.7381 16.588 15.4425 19.5262 13.3093C19.4798 13.223 19.4332 13.1383 19.3862 13.0553C18.3787 11.2751 17.6245 10.9465 17.2855 10.9465C16.6556 10.9465 15.8085 11.3523 14.8108 12.5898C13.8404 13.7933 12.9606 15.5112 12.2694 17.4118C11.8031 18.6943 11.442 20.0065 11.2 21.217ZM22.7735 11.1848C22.7527 11.1473 22.7318 11.1101 22.7108 11.073C21.6192 9.14415 19.8757 7 17.2855 7C14.9862 7 13.1597 8.44748 11.8486 10.0737C10.5102 11.7339 9.44602 13.8904 8.66733 16.0318C7.88399 18.1859 7.34657 20.4436 7.12062 22.3806C7.00786 23.3472 6.96688 24.2824 7.02898 25.1118C7.08664 25.8817 7.24878 26.8133 7.73656 27.5712C8.10441 28.1428 8.7459 28.5129 9.46745 28.4849C10.0018 28.4642 10.3803 28.2294 10.5144 28.1413C10.8147 27.9441 11.0468 27.6851 11.1586 27.5584C11.4219 27.2595 11.7545 26.8199 12.0977 26.3663L12.1464 26.3019C12.8905 25.3185 13.9257 23.9504 15.3047 22.4042C16.812 20.7143 18.7193 18.8247 21.0631 17.0395C21.312 17.7957 21.5454 18.5857 21.7626 19.3907C22.4076 21.7814 22.8792 24.1873 23.1902 26.0054C23.3452 26.9118 23.4593 27.6659 23.5344 28.1913C23.5719 28.4539 23.5996 28.659 23.6178 28.797C23.6268 28.866 23.6335 28.9182 23.6379 28.9523C23.64 28.9694 23.6416 28.982 23.6426 28.99L23.6436 28.9984L23.6438 28.9999C23.6438 28.9999 23.6438 28.9997 25.5514 28.7551C27.459 28.5105 27.4589 28.5097 27.4589 28.5097L27.4582 28.5045L27.4566 28.4915C27.4552 28.4804 27.4533 28.4646 27.4507 28.4443C27.4456 28.4036 27.438 28.3447 27.428 28.2688C27.4081 28.117 27.3783 27.8971 27.3386 27.6188C27.2591 27.0623 27.1393 26.2711 26.9771 25.3229C26.6536 23.4319 26.1572 20.8923 25.468 18.3376C25.1509 17.162 24.7862 15.9573 24.3688 14.7964C25.5006 14.1177 26.7101 13.4797 28 12.9041L26.467 9.28488C25.1606 9.8679 23.9301 10.5074 22.7735 11.1848Z" fill="#F5F5F5" style="fill:#F5F5F5;fill:color(display-p3 0.9623 0.9623 0.9623);fill-opacity:1;"/>
</g>
<defs>
<clipPath id="clip0_54_7">
<rect width="36" height="36" fill="white" style="fill:white;fill-opacity:1;"/>
</clipPath>
</defs>
</svg>
