<?xml version="1.0" standalone="no"?>
<!DOCTYPE svg PUBLIC "-//W3C//DTD SVG 20010904//EN"
 "http://www.w3.org/TR/2001/REC-SVG-20010904/DTD/svg10.dtd">
<svg version="1.0" xmlns="http://www.w3.org/2000/svg"
 width="700.000000pt" height="700.000000pt" viewBox="0 0 700.000000 700.000000"
 preserveAspectRatio="xMidYMid meet">
<metadata>
Created by potrace 1.14, written by Peter Selinger 2001-2017
</metadata>
<g transform="translate(0.000000,700.000000) scale(0.100000,-0.100000)"
fill="#000000" stroke="none">
<path d="M3315 5676 c-449 -73 -848 -446 -1184 -1106 -422 -828 -682 -2022
-575 -2637 53 -309 177 -481 368 -511 126 -20 245 27 349 137 34 37 131 163
216 281 422 587 712 938 1076 1303 207 208 591 554 602 543 8 -8 81 -266 138
-491 118 -465 227 -1028 307 -1592 l42 -292 26 5 c14 3 173 25 354 49 181 24
330 46 331 47 2 2 -8 82 -21 178 -117 866 -314 1795 -508 2398 -25 78 -46 144
-46 147 0 10 338 205 501 289 l177 91 -140 350 c-77 193 -143 354 -148 358 -4
5 -84 -30 -176 -78 -169 -87 -221 -116 -412 -227 -56 -34 -104 -59 -106 -57
-1 2 -19 34 -39 70 -221 402 -507 665 -799 734 -91 22 -239 27 -333 11z m212
-793 c87 -41 238 -225 323 -393 l29 -57 -137 -110 c-442 -356 -925 -843 -1305
-1315 -61 -75 -112 -136 -113 -135 -2 1 8 52 21 113 83 394 241 857 401 1176
121 240 239 416 370 550 156 159 306 221 411 171z"/>
</g>
</svg>
